HIERARCHY
ROOT pelvis
{
  OFFSET 0 100 0
  CHANNELS 6 Xposition Yposition Zposition Zrotation Xrotation Yrotation
  JOINT pelvis_right_femur
  {
    OFFSET -10.78128 -3.44521 -0.5502486
    CHANNELS 3 Zrotation Xrotation Yrotation
    JOINT right_femur_tibia
    {
      OFFSET -0.8047443 -44.0398 -0.1307829
      CHANNELS 3 Zrotation Xrotation Yrotation
      JOINT right_tibia_foot
      {
        OFFSET 3.006224 -47.83518 -5
        CHANNELS 3 Zrotation Xrotation Yrotation
        End Site
        {
          OFFSET 0 -5 15
        }
      }
    }
  }
  JOINT pelvis_left_femur
  {
    OFFSET 10.78128 -3.44521 -0.5502486
    CHANNELS 3 Zrotation Xrotation Yrotation
    JOINT left_femur_tibia
    {
      OFFSET 0.8047443 -44.0398 -0.1307829
      CHANNELS 3 Zrotation Xrotation Yrotation
      JOINT left_tibia_foot
      {
        OFFSET -4.370144 -48.10324 -4.275266
        CHANNELS 3 Zrotation Xrotation Yrotation
        End Site
        {
          OFFSET 0 -5 15
        }
      }
    }
  }
  JOINT pelvis_spine1
  {
    OFFSET 0 6.468898 -3.129235
    CHANNELS 3 Zrotation Xrotation Yrotation
    JOINT spine1
    {
      OFFSET 0 23.15396 4.99043
      CHANNELS 3 Zrotation Xrotation Yrotation
      JOINT spine2
      {
        OFFSET 0 20.79997 -5.064912
        CHANNELS 3 Zrotation Xrotation Yrotation
        JOINT neck
        {
          OFFSET 0 14.38658 9.616178
          CHANNELS 3 Zrotation Xrotation Yrotation
          End Site
          {
            OFFSET 0 20 0
          }
        }
      }
      JOINT right_manubrium
      {
        OFFSET -5.722621 16.35077 3.967754
        CHANNELS 3 Zrotation Xrotation Yrotation
        JOINT right_clavicle
        {
          OFFSET -13.16364 1.694482 -4.693211
          CHANNELS 3 Zrotation Xrotation Yrotation
          JOINT right_humerus
          {
            OFFSET -28.5034 -0.3100689 -2.792744
            CHANNELS 3 Zrotation Xrotation Yrotation
            JOINT right_radius
            {
              OFFSET -25.15693 0.02248979 -1.271978
              CHANNELS 3 Zrotation Xrotation Yrotation
              End Site
              {
                OFFSET -15 0 0
              }
            }
          }
        }
      }
      JOINT left_manubrium
      {
        OFFSET 5.722621 16.35077 3.967754
        CHANNELS 3 Zrotation Xrotation Yrotation
        JOINT left_clavicle
        {
          OFFSET 13.16364 1.694482 -4.693211
          CHANNELS 3 Zrotation Xrotation Yrotation
          JOINT left_humerus
          {
            OFFSET 29.39168 -1.063119 -2.237045
            CHANNELS 3 Zrotation Xrotation Yrotation
            JOINT left_radius
            {
              OFFSET 24.59957 -0.9528479 0.9047498
              CHANNELS 3 Zrotation Xrotation Yrotation
              End Site
              {
                OFFSET 15 -0 -0
              }
            }
          }
        }
      }
    }
  }
}
MOTION
Frames: 9
Frame Time: 0.0416666666667
0 103.5113 0 2.14235 -2.028303 0.1404718 1.35639 -11.2653 7.494423 -0 37.04782 -0 -5.548244 -18.41361 -3.206175 -7.822858 11.70542 -23.7909 -0 4.556501 -0 8.154892 -15.91327 26.31187 -2.373135 -3.658061 4.686066 3.358101 9.599858 -8.44895 1.414232 21.06353 6.510846 2.734542 -26.65506 9.803323 6.094054 -19.17979 11.37927 86.74117 34.06134 -21.58503 -0 0 15.56259 -5.184239 7.82918 2.926421 6.624915 -21.10644 -0.397545 -95.16891 25.96685 23.19691 0 0 -15.56818 9.506886 17.16259 3.184013
0.2562443 104.228 1.397272 1.642737 -1.026838 0.1502924 2.184901 -13.54905 8.196075 -0 37.40454 -0 -5.591923 -18.26745 -3.273133 -7.633456 11.85221 -24.11615 -0 5.007064 -0 6.962529 -17.45373 26.38456 -2.353168 -3.621293 4.693603 3.33956 9.61187 -8.433495 1.400946 21.06533 6.511571 2.745147 -26.61424 9.765317 6.092683 -19.15098 11.38341 86.74138 34.08575 -21.55792 -0 0 15.49856 -5.27883 7.872078 2.991873 6.603609 -21.10859 -0.4229561 -95.13076 25.96023 23.17682 0 0 -15.5894 9.43512 17.09872 3.26164
0.3586395 103.1688 6.549264 0.8830098 -3.716105 0.4493552 0.9563019 -25.276 -3.797847 -0 10.56159 -0 -7.309988 1.468548 -1.829217 -5.827178 15.25292 -10.86574 -0 10.35782 -0 -0.4025675 -21.73938 15.62218 -1.229274 -1.624055 4.991068 2.587873 10.35322 -8.006623 0.9755145 20.57064 6.744214 3.516421 -25.06776 8.242299 5.800245 -17.96866 11.64192 87.29569 35.17672 -20.91285 -0 0 12.59831 -9.635394 10.07112 5.831182 6.055913 -21.65489 -1.672454 -92.12358 24.58581 20.7828 0 0 -18.79033 7.887417 12.92341 5.423506
0.3653636 102.4547 12.13426 0.6977868 -2.731168 0.7864765 1.270966 -28.15084 -2.058525 -0 9.826375 -0 -4.990563 1.169163 -3.505426 -5.603796 16.55431 -10.37594 -0 11.86984 -0 -2.538883 -22.56166 14.30488 -0.8695045 -1.383882 4.782512 2.831216 10.40705 -8.498329 0.9011542 19.95257 7.200369 3.839077 -25.62314 8.430341 5.609618 -17.83426 11.74731 88.53895 35.40117 -22.69847 -0 0 11.6544 -9.331865 10.27927 5.654179 6.34099 -22.34184 -2.135187 -90.94758 24.67699 19.61576 0 0 -22.37835 8.135563 11.53895 5.809259
0.3334563 101.9748 18.00585 0.258259 -0.4988889 1.215545 2.683904 -31.55862 0.04593438 -0 7.79906 -0 -3.360193 0.9984635 -4.205212 -5.410885 17.44461 -10.73645 -0 14.08361 -0 -4.17059 -23.03803 12.96919 -0.6267232 -1.037878 4.123229 2.981872 10.59805 -9.353437 0.4931009 18.87999 8.314312 4.311004 -24.8314 8.388359 4.830526 -17.01438 12.08971 91.21669 34.98183 -26.09609 -0 0 8.880542 -13.41963 12.74993 7.60316 6.873654 -23.77663 -3.569469 -86.70308 23.24915 15.03103 0 0 -29.88293 6.785227 7.337362 7.772138
0.3187764 101.6144 24.03834 -0.2025322 0.7357598 1.730002 3.906683 -32.66916 0.9655967 -0 7.255195 -0 -3.571825 1.436428 -3.817025 -5.234715 17.58961 -11.10336 -0 16.4956 -0 -4.647807 -22.5209 12.36156 -0.5140645 -1.226702 4.11009 2.858519 10.5873 -9.490764 0.4199758 18.63035 8.673123 4.47158 -24.74005 8.535357 4.739277 -17.08632 12.14842 91.91954 35.26582 -27.0817 -0 0 8.876689 -14.20301 13.38089 7.79819 7.146977 -24.21139 -3.814338 -86.43183 23.69143 15.01023 0 0 -31.50202 6.02786 7.08776 9.046641
0.3492494 101.4481 30.35806 -0.5070568 0.8532515 2.233603 4.637285 -32.46351 0.3368598 -0 7.225392 -0 -4.944079 3.162016 -2.630004 -5.195455 17.63796 -10.6258 -0 20.05995 -0 -3.825867 -20.89888 11.94877 -0.2715279 -1.252207 4.272596 2.490136 10.68126 -9.385787 0.438084 18.70408 8.720039 4.597653 -24.28331 8.416832 4.894663 -17.13985 12.08437 92.0761 35.52478 -27.24532 -0 0 9.394898 -14.95755 14.02021 7.841056 7.209753 -24.38841 -3.889783 -86.95012 24.55626 15.78071 0 0 -31.22605 4.919135 7.67546 10.70973
0.4426165 101.4099 36.87823 -0.5316919 0.321159 2.663201 4.799291 -31.89657 -0.8533726 -0 7.210619 -0 -6.264003 4.866876 -1.565283 -5.285727 17.57461 -9.859353 -0 22.61449 -0 -2.4629 -19.54452 11.84043 -0.09748096 -1.13505 4.410976 2.033168 10.83208 -9.186955 0.4757083 18.94414 8.640637 4.644272 -23.3512 8.131838 5.05163 -17.01991 11.98518 92.01952 35.60457 -26.97799 -0 0 9.802105 -16.54936 15.07904 8.274025 7.150083 -24.44835 -3.971153 -87.21512 25.0658 16.0844 0 0 -30.39076 3.612402 8.208145 12.37912
0.5687518 101.4413 43.61168 -0.2874921 -0.8463309 2.97039 4.567334 -30.54728 -2.194023 -0 6.812346 -0 -7.141333 6.447417 -1.057782 -5.373854 17.51569 -8.702223 -0 25.17328 -0 -1.329265 -18.22895 11.77137 -0.02021911 -1.002653 4.512974 1.589983 10.93075 -8.952215 0.5215271 19.21114 8.612636 4.651762 -22.36601 7.938012 5.146829 -16.89083 11.8846 91.89332 35.7529 -26.53687 -0 0 10.15021 -18.44437 16.29153 8.91762 7.08806 -24.43326 -4.023241 -87.263 25.348 16.12116 0 0 -29.64946 2.427511 8.637403 13.82973
